<?xml version="1.0" standalone="no"?>
<!DOCTYPE svg PUBLIC "-//W3C//DTD SVG 20010904//EN"
 "http://www.w3.org/TR/2001/REC-SVG-20010904/DTD/svg10.dtd">
<svg version="1.0" xmlns="http://www.w3.org/2000/svg"
 width="500.000000pt" height="500.000000pt" viewBox="0 0 500.000000 500.000000"
 preserveAspectRatio="xMidYMid meet">

<g transform="translate(0.000000,500.000000) scale(0.100000,-0.100000)"
fill="#000000" stroke="none">
<path d="M2355 4224 c-16 -2 -66 -9 -110 -15 -545 -72 -1047 -438 -1295 -944
-373 -763 -144 -1676 545 -2170 108 -78 307 -181 430 -225 751 -264 1587 21
2025 690 355 543 369 1271 35 1825 -267 443 -696 735 -1205 821 -84 15 -366
26 -425 18z m316 -24 c586 -59 1110 -426 1363 -955 122 -253 170 -466 170
-745 0 -270 -46 -482 -159 -725 -156 -337 -445 -633 -786 -806 -407 -205 -933
-231 -1365 -66 -578 221 -989 733 -1085 1352 -16 103 -16 387 0 490 29 187 96
391 177 544 332 624 991 980 1685 911z"/>
<path d="M2368 4017 c17 -20 19 -152 2 -172 -14 -17 -10 -17 52 -13 47 3 73
10 87 22 27 25 27 62 0 77 -15 8 -18 14 -10 22 15 15 14 50 -1 65 -17 17 -144
17 -130 -1z m106 -22 c9 -23 -3 -42 -30 -48 -22 -4 -24 -1 -24 29 0 29 3 34
24 34 13 0 26 -7 30 -15z m10 -87 c15 -25 -4 -53 -35 -53 -21 0 -24 5 -27 38
-3 37 -2 38 24 35 15 -2 32 -11 38 -20z"/>
<path d="M2629 4021 c12 -8 12 -22 3 -87 -6 -42 -16 -80 -23 -85 -22 -13 -7
-18 71 -21 74 -3 75 -3 78 22 2 22 1 23 -8 8 -12 -19 -55 -24 -78 -9 -11 7
-12 22 -3 82 7 40 17 76 22 80 14 8 -14 19 -49 19 -20 0 -23 -3 -13 -9z"/>
<path d="M2025 3960 c-11 -5 -29 -11 -39 -14 -17 -6 -17 -8 -4 -19 9 -6 26
-43 38 -80 17 -54 19 -71 10 -82 -15 -18 -16 -18 44 0 73 22 96 40 96 75 0 23
-6 33 -25 42 -19 9 -23 16 -19 35 4 13 1 30 -6 38 -13 16 -63 19 -95 5z m66
-26 c15 -18 2 -47 -25 -52 -17 -4 -41 42 -30 59 8 14 40 11 55 -7z m39 -83
c13 -25 13 -27 -6 -45 -26 -27 -51 -20 -58 16 -4 21 -2 34 6 40 22 14 47 9 58
-11z"/>
<path d="M2893 3960 c-48 -19 -70 -94 -43 -144 17 -32 53 -50 98 -49 69 2 116
90 82 154 -22 40 -88 59 -137 39z m89 -27 c30 -27 20 -111 -16 -135 -18 -12
-63 -9 -74 5 -22 27 -18 87 9 121 23 30 54 33 81 9z"/>
<path d="M1803 3867 c-60 -30 -78 -47 -50 -47 18 0 79 -128 72 -151 -5 -16 4
-14 64 18 68 35 88 61 61 78 -5 3 -10 -1 -10 -9 0 -16 -46 -56 -65 -56 -7 0
-18 14 -25 31 -11 26 -11 32 1 40 8 5 22 6 32 3 15 -5 16 -2 6 19 -11 24 -12
24 -30 6 -10 -10 -23 -19 -27 -19 -9 0 -32 44 -32 59 0 13 58 34 75 27 18 -7
20 8 3 22 -9 7 -31 1 -75 -21z"/>
<path d="M3125 3827 c-56 -56 -45 -126 25 -162 38 -19 64 -19 81 1 12 15 10
16 -17 10 -40 -9 -84 24 -84 62 0 35 35 92 57 93 47 3 80 -18 85 -54 3 -20 4
-19 15 5 11 25 10 29 -18 49 -16 11 -48 23 -69 26 -35 5 -43 2 -75 -30z"/>
<path d="M1636 3771 c-13 -14 -14 -20 -4 -24 11 -4 48 -97 48 -121 0 -3 -13 0
-30 9 -28 15 -57 76 -44 97 12 18 -13 6 -51 -26 l-39 -33 40 -21 c47 -24 67
-45 62 -67 -2 -12 -14 -8 -55 20 -29 20 -53 43 -53 51 0 12 -6 11 -29 -8 -28
-22 -43 -47 -20 -33 5 4 47 -16 91 -45 87 -55 115 -59 98 -15 -16 42 -12 48
18 26 49 -35 54 -15 22 88 -16 51 -26 99 -23 107 7 20 -11 17 -31 -5z"/>
<path d="M3386 3736 c8 -20 -92 -137 -111 -130 -25 10 -17 -2 22 -32 21 -16
34 -21 31 -13 -6 16 27 68 37 58 3 -4 8 -31 10 -60 2 -40 9 -58 26 -71 12 -10
23 -17 25 -15 2 1 -1 20 -6 42 -5 22 -10 55 -10 72 0 38 22 48 90 41 22 -2 40
-1 39 2 0 3 -13 15 -30 28 -21 18 -29 20 -29 9 0 -10 -15 -17 -46 -22 -25 -3
-48 -5 -50 -2 -9 9 39 58 52 53 24 -9 15 9 -16 32 -34 26 -41 27 -34 8z"/>
<path d="M2310 3645 c-161 -28 -344 -104 -479 -198 -35 -25 -102 -83 -148
-128 -401 -398 -455 -1015 -132 -1484 59 -86 193 -221 280 -282 246 -172 569
-247 852 -198 249 43 456 150 634 326 394 392 454 1008 142 1471 -58 86 -208
238 -293 297 -251 173 -569 246 -856 196z m440 -45 c722 -178 1082 -939 760
-1603 -76 -156 -235 -339 -373 -430 -124 -82 -287 -149 -437 -178 -84 -16
-316 -16 -400 0 -150 29 -313 96 -437 178 -32 21 -97 75 -145 121 -126 121
-217 263 -286 447 -29 75 -53 210 -58 320 -28 573 381 1065 966 1165 90 15
313 4 410 -20z"/>
<path d="M1560 2912 c12 -16 93 -213 181 -438 88 -225 164 -412 167 -416 4 -4
54 113 111 260 57 147 107 271 111 275 4 4 53 -111 109 -255 57 -145 107 -270
111 -278 7 -12 11 -8 20 15 129 340 326 825 342 843 l21 22 -31 0 c-29 0 -32
-3 -32 -31 0 -26 -261 -720 -279 -741 -8 -9 -284 697 -289 740 -4 32 -5 32
-59 32 l-55 0 23 -36 c12 -20 43 -90 69 -156 l47 -121 -91 -233 c-50 -128 -94
-230 -97 -226 -4 4 -20 43 -37 87 -16 44 -78 203 -137 353 -58 151 -107 287
-107 303 -1 29 -2 29 -60 29 l-59 0 21 -28z"/>
<path d="M2788 2929 c17 -18 18 -859 0 -877 -19 -19 393 -17 459 3 80 24 143
72 175 134 24 45 28 66 28 130 0 134 -53 208 -183 252 -28 10 -43 18 -32 18
28 1 81 35 100 65 45 68 38 167 -15 216 -50 46 -132 62 -350 68 -161 3 -193 2
-182 -9z m414 -46 c25 -12 54 -33 64 -47 24 -37 23 -125 -2 -167 -32 -54 -71
-70 -197 -80 -62 -5 -128 -13 -147 -19 -19 -5 -36 -10 -37 -10 -7 0 -2 338 5
344 4 4 66 6 137 4 106 -3 139 -7 177 -25z m6 -328 c108 -32 163 -113 164
-239 0 -87 -22 -138 -79 -185 -59 -49 -119 -62 -274 -59 l-134 3 -3 228 -2
228 42 19 c55 25 210 27 286 5z"/>
<path d="M1115 2767 c-59 -12 -64 -15 -45 -27 9 -5 17 -5 20 0 3 5 22 10 43
12 22 1 37 7 37 15 0 7 -1 12 -2 12 -2 -1 -25 -6 -53 -12z"/>
<path d="M3830 2769 c0 -5 9 -9 19 -9 29 0 35 -17 11 -32 -11 -7 -20 -19 -20
-26 0 -9 15 -1 36 18 22 19 44 30 55 27 11 -3 16 0 13 8 -3 7 -15 10 -29 7
-13 -2 -38 1 -55 6 -18 7 -30 7 -30 1z"/>
<path d="M1147 2729 c-10 -6 -25 -8 -32 -5 -8 3 -26 -1 -40 -8 l-26 -14 50
-31 c28 -17 51 -27 51 -23 0 5 -17 16 -37 26 -33 16 -35 19 -20 28 13 7 25 5
41 -6 23 -15 24 -14 28 14 3 17 4 30 4 30 -1 0 -9 -5 -19 -11z"/>
<path d="M3856 2642 c-7 -12 5 -92 14 -92 5 0 6 9 3 20 -4 14 1 21 21 26 15 3
37 4 50 2 16 -3 23 -1 20 7 -3 8 -22 10 -56 7 -48 -5 -51 -4 -45 17 5 21 2 28
-7 13z"/>
<path d="M1040 2578 c0 -5 12 -8 26 -8 21 0 25 -4 21 -20 -3 -11 -1 -20 4 -20
5 0 9 10 9 21 0 16 5 20 19 16 11 -3 22 0 24 7 3 7 -13 11 -49 11 -30 0 -54
-3 -54 -7z"/>
<path d="M1030 2530 c0 -5 5 -10 11 -10 5 0 7 5 4 10 -3 6 -8 10 -11 10 -2 0
-4 -4 -4 -10z"/>
<path d="M1126 2525 c-3 -8 -1 -15 4 -15 6 0 10 7 10 15 0 8 -2 15 -4 15 -2 0
-6 -7 -10 -15z"/>
<path d="M3860 2475 c0 -5 25 -10 55 -10 30 0 55 5 55 10 0 6 -25 10 -55 10
-30 0 -55 -4 -55 -10z"/>
<path d="M1083 2442 c-47 -3 -53 -5 -53 -26 0 -12 6 -30 13 -40 11 -15 17 -17
35 -7 13 7 26 10 30 7 17 -10 33 12 30 40 -3 28 -4 29 -55 26z m47 -38 c0 -12
-6 -15 -24 -10 -15 4 -26 1 -28 -6 -6 -16 -38 -2 -38 17 0 11 11 15 45 15 35
0 45 -4 45 -16z"/>
<path d="M3950 2380 c0 -5 5 -10 10 -10 6 0 10 5 10 10 0 6 -4 10 -10 10 -5 0
-10 -4 -10 -10z"/>
<path d="M3850 2335 c0 -6 17 -9 40 -7 23 2 47 -1 55 -8 12 -10 15 -9 15 6 0
16 -8 19 -55 19 -31 0 -55 -4 -55 -10z"/>
<path d="M1044 2286 c-8 -21 14 -56 35 -56 12 0 23 11 30 31 12 36 37 34 33
-2 -2 -17 0 -21 9 -12 17 17 1 53 -24 53 -16 0 -26 -9 -34 -30 -6 -16 -16 -30
-21 -30 -16 0 -23 31 -11 46 9 11 9 14 0 14 -6 0 -14 -6 -17 -14z"/>
<path d="M3893 2238 c-29 -5 -53 -13 -53 -16 0 -4 23 -22 50 -40 38 -24 50
-28 50 -16 0 8 -4 13 -9 10 -5 -3 -14 1 -21 9 -7 8 -18 15 -26 15 -7 0 -16 5
-20 11 -5 8 1 10 20 7 14 -3 26 -1 26 5 0 5 9 7 20 4 13 -3 20 0 20 9 0 8 -1
13 -2 13 -2 -1 -27 -6 -55 -11z"/>
<path d="M1108 2158 c-58 -15 -45 -25 17 -14 30 6 55 14 55 18 0 10 -25 9 -72
-4z"/>
<path d="M3810 2109 c0 -5 14 -12 30 -16 46 -9 44 -19 -5 -38 -25 -9 -45 -20
-45 -25 0 -10 50 -23 58 -15 3 3 -2 5 -11 5 -33 0 -16 16 33 34 28 10 50 20
48 21 -11 11 -108 41 -108 34z"/>
<path d="M1190 2070 c9 -17 7 -22 -17 -31 -15 -6 -38 -12 -49 -12 -12 -1 -19
-7 -17 -14 3 -8 13 -8 38 3 45 18 65 18 65 -3 0 -9 3 -14 6 -11 8 8 -17 88
-28 88 -5 0 -4 -9 2 -20z"/>
<path d="M3860 2006 c0 -2 7 -6 15 -10 8 -3 15 -1 15 4 0 6 -7 10 -15 10 -8 0
-15 -2 -15 -4z"/>
<path d="M1237 1943 c-3 -5 -24 -15 -46 -23 -23 -7 -41 -15 -41 -17 0 -13 32
-63 41 -63 6 0 3 7 -5 16 -25 25 -19 40 24 56 39 16 39 16 49 -11 5 -14 10
-19 10 -11 0 22 -25 64 -32 53z"/>
<path d="M3750 1930 c-11 -11 -20 -27 -20 -35 0 -23 37 -55 63 -55 23 0 47 17
47 33 0 5 -7 1 -16 -8 -29 -29 -99 9 -78 43 15 24 52 27 75 6 10 -9 19 -12 19
-6 0 13 -39 42 -57 42 -7 0 -22 -9 -33 -20z"/>
<path d="M1210 1890 c0 -5 5 -10 11 -10 5 0 7 5 4 10 -3 6 -8 10 -11 10 -2 0
-4 -4 -4 -10z"/>
<path d="M1277 1813 c-4 -3 -7 -22 -7 -40 0 -27 -4 -34 -17 -31 -10 2 -19 13
-21 26 -2 12 -7 20 -12 17 -5 -3 -4 -16 2 -30 12 -26 57 -36 59 -12 1 6 2 23
2 36 3 33 25 38 36 9 6 -13 10 -17 10 -7 2 28 -35 50 -52 32z"/>
<path d="M3680 1800 c0 -5 4 -10 9 -10 4 0 24 -11 44 -24 19 -13 38 -22 41
-18 4 3 -14 18 -39 34 -50 31 -55 33 -55 18z"/>
<path d="M3623 1707 c-25 -36 -32 -63 -9 -32 14 19 15 19 54 -12 32 -26 41
-29 46 -18 3 8 0 15 -7 15 -7 0 -25 11 -42 24 -25 20 -28 26 -16 40 7 9 10 16
5 16 -5 0 -19 -15 -31 -33z"/>
<path d="M1410 1636 c0 -9 -11 -34 -25 -56 -18 -29 -21 -40 -11 -40 8 0 16 10
20 23 3 12 14 32 25 44 17 18 18 23 6 33 -12 10 -15 9 -15 -4z"/>
<path d="M1440 1596 c0 -8 -9 -21 -20 -29 -11 -8 -17 -16 -14 -20 3 -3 1 -15
-6 -26 -12 -23 -10 -24 14 -15 9 3 13 10 10 16 -8 12 25 48 43 48 8 0 11 5 8
10 -4 6 -11 7 -17 4 -6 -4 -8 -2 -4 4 3 6 2 13 -4 17 -5 3 -10 -1 -10 -9z"/>
<path d="M3537 1592 c-33 -36 -8 -92 40 -92 24 0 57 34 50 52 -4 9 -6 7 -6 -4
-2 -29 -38 -42 -67 -23 -30 19 -31 49 -2 69 12 9 18 16 12 16 -6 0 -18 -8 -27
-18z"/>
<path d="M1482 1544 c-11 -12 -9 -14 8 -14 11 0 20 4 20 9 0 17 -15 19 -28 5z"/>
<path d="M3448 1504 c-4 -3 8 -19 25 -36 l32 -29 -59 6 -60 7 32 -36 c18 -20
32 -41 32 -47 0 -6 5 -7 11 -3 7 4 0 17 -18 36 l-28 30 60 -7 60 -7 -35 39
c-19 21 -38 41 -41 46 -3 4 -8 5 -11 1z"/>
<path d="M1531 1469 c-12 -17 -32 -34 -43 -38 -16 -6 -17 -9 -6 -17 10 -8 23
0 51 32 21 23 34 45 29 48 -5 3 -19 -8 -31 -25z"/>
<path d="M1615 1430 c-3 -6 1 -10 9 -10 24 0 19 -15 -14 -54 -17 -19 -27 -37
-22 -40 5 -3 22 12 37 34 27 38 29 40 46 24 11 -10 19 -13 19 -8 0 15 -68 65
-75 54z"/>
<path d="M3327 1394 c-3 -3 5 -18 19 -33 29 -31 28 -65 -3 -69 -15 -2 -28 7
-46 33 -14 20 -27 33 -30 28 -3 -5 9 -26 27 -48 31 -37 35 -39 60 -27 16 7 26
20 26 32 0 24 -44 93 -53 84z"/>
<path d="M1730 1338 c0 -6 -12 -26 -26 -45 -28 -38 -25 -59 3 -24 17 20 19 21
41 5 21 -15 22 -17 8 -33 -9 -10 -13 -21 -9 -24 3 -4 17 11 30 33 13 22 29 40
36 40 7 0 7 4 -2 13 -8 7 -15 8 -17 2 -13 -33 -21 -37 -43 -24 -25 16 -26 23
-6 42 13 13 13 16 0 21 -8 3 -15 0 -15 -6z"/>
<path d="M3178 1295 l-27 -15 27 -45 c27 -45 53 -64 31 -23 -9 17 -8 24 5 34
11 8 13 14 7 19 -6 3 -11 1 -11 -4 0 -16 -27 -13 -34 4 -6 16 26 39 39 27 5
-4 5 -1 1 6 -4 6 -8 12 -9 12 -1 -1 -14 -7 -29 -15z"/>
<path d="M1946 1203 c-4 -10 2 -25 16 -40 23 -24 23 -25 3 -40 -17 -14 -18
-15 -2 -9 10 3 21 6 23 6 11 0 2 39 -11 50 -8 7 -15 19 -15 26 0 17 22 18 38
2 8 -8 12 -8 12 -1 0 25 -55 30 -64 6z"/>
<path d="M2938 1190 c-16 -10 -16 -13 2 -52 10 -23 16 -46 14 -50 -7 -11 2
-10 41 6 29 12 35 20 35 45 0 51 -47 77 -92 51z m64 -17 c10 -9 18 -24 18 -33
0 -22 -25 -44 -43 -37 -14 5 -38 72 -29 81 10 11 36 6 54 -11z"/>
<path d="M2063 1144 c-15 -24 -15 -29 -2 -53 18 -32 54 -39 80 -15 37 34 14
94 -36 94 -15 0 -31 -10 -42 -26z m75 -17 c4 -33 -13 -57 -38 -57 -29 0 -41
55 -18 78 22 22 53 10 56 -21z"/>
<path d="M2851 1128 c14 -50 12 -52 -30 -19 -42 34 -64 40 -55 16 4 -8 9 -13
13 -11 4 3 27 -11 51 -30 24 -19 44 -33 45 -32 6 6 -20 108 -26 108 -4 0 -3
-15 2 -32z"/>
<path d="M1920 1135 c0 -8 4 -15 10 -15 5 0 7 7 4 15 -4 8 -8 15 -10 15 -2 0
-4 -7 -4 -15z"/>
<path d="M2230 1118 c0 -13 -3 -32 -6 -44 -9 -35 32 -66 63 -46 18 12 44 102
30 102 -7 0 -13 -17 -14 -37 -2 -42 -22 -67 -46 -57 -19 7 -23 54 -7 85 8 15
7 19 -5 19 -9 0 -15 -9 -15 -22z"/>
<path d="M2388 1065 l-3 -55 38 0 c20 0 37 4 37 9 0 4 -12 6 -26 3 -26 -5 -26
-4 -23 47 3 34 0 51 -8 51 -7 0 -13 -22 -15 -55z"/>
<path d="M2640 1078 c-6 -24 -13 -49 -15 -55 -2 -7 1 -13 9 -13 7 0 13 8 13
18 -1 51 4 73 14 67 6 -4 8 -13 5 -20 -2 -7 2 -16 10 -19 8 -3 14 -12 14 -21
0 -8 6 -15 14 -15 10 0 7 13 -13 50 -14 27 -29 50 -33 50 -4 0 -12 -19 -18
-42z"/>
<path d="M2781 1084 c0 -11 3 -14 6 -6 3 7 2 16 -1 19 -3 4 -6 -2 -5 -13z"/>
<path d="M2786 1043 c-6 -14 -5 -15 5 -6 7 7 10 15 7 18 -3 3 -9 -2 -12 -12z"/>
</g>
</svg>
